# xmcd
#
# Track frame offsets:
#	300
#	14067
#	28208
#	41678
#	54946
#	68145
#	82761
#	97068
#	109882
#	121995
#	135763
#	150092
#	165000
#	179216
#	193018
#	207061
#	220870
#	234939
#	247698
#	261608
#	275595
#	286415
#	300670
#	314520
#	328438
#
# Disc length: 4543
#
# Revision: 2
# Processed by: cddbd v1.5.1PL0 Copyright (c) Steve Scherf et al.
# Submitted via: audiograbber 1.82.02
# Normalized: r1:DSETVAR1,TDELIM( - )
#
DISCID=6311bb19
DTITLE=Various Artist - The Robert Johnson Connection Disc 1
DYEAR=2003
DGENRE=Blues
TTITLE0=Hambone Willie Newbern - Roll and Tumble Blues
TTITLE1=Kokomo Arnold - Milk Cow Blues
TTITLE2=Skip James - Devil Got My Woman
TTITLE3=Leroy Carr - When The Sun Goes Down
TTITLE4=Son House - Walkin' Blues
TTITLE5=Mississippi Sheiks - Sitting On Top Of The World
TTITLE6=Lonnie Johnson - Blue Ghost Blues
TTITLE7=Blind Lemon Jefferson - Dry Southern Blues
TTITLE8=Charley Patton - Revenue Man Blues
TTITLE9=Scrapper Blackwell - Kokomo Blues
TTITLE10=Ramblin' Thomas - No Job Blues
TTITLE11=Big Bill Broonzy - Shelby County Blues
TTITLE12=Ma Rainey - Booze and Blues
TTITLE13=Peetie Wheatstraw - Police Station Blues
TTITLE14=Henry Thomas - Red River Blues
TTITLE15=Kokomo Arnold - Sagefield Woman Blues
TTITLE16=Son House - My Black Mama
TTITLE17=Skip James - 22-20 Blues
TTITLE18=Carl Rafferty - Mr Carl's Blues
TTITLE19=Johnny Temple - Lead Pencil Blues
TTITLE20=Blind Lemon Jefferson - Change My Luck Blues
TTITLE21=Mississippi Sheiks - Show Me What You Got
TTITLE22=Lonnie Johnson - Life Saver Blues
TTITLE23=Charley Patton - Tom Rushen Blues
TTITLE24=Casey Bill Weldon - Go Ahead, Buddy
EXTD=
EXTT0=
EXTT1=
EXTT2=
EXTT3=
EXTT4=
EXTT5=
EXTT6=
EXTT7=
EXTT8=
EXTT9=
EXTT10=
EXTT11=
EXTT12=
EXTT13=
EXTT14=
EXTT15=
EXTT16=
EXTT17=
EXTT18=
EXTT19=
EXTT20=
EXTT21=
EXTT22=
EXTT23=
EXTT24=
PLAYORDER=
